<?xml version="1.0" standalone="no"?>
<!DOCTYPE svg PUBLIC "-//W3C//DTD SVG 20010904//EN"
 "http://www.w3.org/TR/2001/REC-SVG-20010904/DTD/svg10.dtd">
<svg version="1.0" xmlns="http://www.w3.org/2000/svg"
 width="200.000000pt" height="200.000000pt" viewBox="0 0 200.000000 200.000000"
 preserveAspectRatio="xMidYMid meet">
<metadata>
Created by potrace 1.16, written by Peter Selinger 2001-2019
</metadata>
<g transform="translate(0.000000,200.000000) scale(0.100000,-0.100000)"
fill="#000000" stroke="none">
<path d="M635 1759 c-22 -22 -27 -34 -20 -44 6 -8 170 -164 365 -346 195 -182
361 -337 368 -344 11 -10 -52 -73 -360 -356 -205 -188 -374 -346 -376 -351 -4
-9 39 -67 51 -67 14 -1 827 750 826 762 0 11 -687 659 -787 744 l-39 33 -28
-31z"/>
</g>
</svg>
