<svg xmlns="http://www.w3.org/2000/svg" viewBox="0 0 181.72 220.27"><defs><style>.cls-1{fill:#c4e0a9;}.cls-2{fill:#ea71ad;}.cls-3{fill:#d3ab2a;}.cls-4{fill:#ffe6e6;}.cls-5{fill:#1d4592;}.cls-6{fill:#f2d7d7;}.cls-7{fill:#f2bddc;}.cls-8{fill:#f28c8c;}.cls-9{fill:#fff;}.cls-10{fill:#71491c;}.cls-11{fill:none;stroke:#71491c;stroke-miterlimit:10;}.cls-12{fill:#abc68b;}</style></defs><title>Asset 3</title><g id="Layer_2" data-name="Layer 2"><g id="Layer_2-2" data-name="Layer 2"><ellipse class="cls-1" cx="90.86" cy="110.13" rx="90.86" ry="110.13"/><path class="cls-2" d="M69.4,162.21a115.31,115.31,0,0,0-35,16c-10,6.78-4.42,2.65-10,6.78-1,.72,13.17,17.42,25.61,23.57,4.93,2.43,9,5,13.42,6.62a82.74,82.74,0,0,0,15.06,3.78c12.74,1.6,12.36,1.33,23.41.52,22.82-1.67,28-5.81,41.28-18.1,8.65-8,19.15-19.27,16.95-21.26-1.38-1.24-19.11-10.64-27.87-13.79-5.93-2.14-15.21-2.8-19.45-2.76-3.29,0-.83-1.35-2.55.28-7.8,7.36-9.4,7.59-12.79,9a20.94,20.94,0,0,1-12.6.93C74.11,170.44,70,163.83,69.4,162.21Z"/><path class="cls-3" d="M129.62,145.41c-2.82-4.51,3-25,5.16-29S145.46,86.79,140.84,68a76.72,76.72,0,0,0-10.31-23.09A62.77,62.77,0,0,0,124,37.2a40.23,40.23,0,0,0-5.22-4.35,54.1,54.1,0,0,0-7.42-4.35c-3.92-1.84-17.79-6.77-34.54-2.33-11.2,3-21.26,9.21-27.68,17.26a47.2,47.2,0,0,0-6.35,10.78,86.09,86.09,0,0,0-3.25,9.13,72.27,72.27,0,0,0-3.14,18,126.86,126.86,0,0,0,.29,14.75,158.89,158.89,0,0,0,1.47,16,44.79,44.79,0,0,0,4.22,13.16,66.25,66.25,0,0,0,7.41,11.16c2,2.7,3.29,4.89,2.9,8-.57,4.66-4.36,7.76-7.89,10.2s-6.8,4.19-6.33,6.15,4.87,2.61,10.82,2.71,13.44-.37,20.11-.61c22.24-.81,38.94.6,50.4,1.33s17.67.8,18.94-2.71c.78-2.19-1.88-5-4.92-8S132.44,149.92,129.62,145.41Z"/><path class="cls-4" d="M80.29,139.4s.35,13.78-5.69,19c-3.15,2.74-10,5.17-10,5.17-2.34.78-.72,1,2.22,2.05,4.47,1.61,12.43,9.4,24.93,8.73,12.92-.68,23.5-8.34,21.91-9.78-2.8-1.74-10.64-6-12.54-9.66-3.61-7-2.86-15.54-2.86-15.54Z"/><path class="cls-4" d="M52.36,77.19c-2.9,25.08,9.75,61.34,32.19,64.6,13.13,1.91,24.23-8.26,25.85-9.74,10.07-9.23,12.18-21.57,13.66-30.25a59.31,59.31,0,0,0,0-23.59c-1.4-6.38-3.73-19.16-14.61-28a29.77,29.77,0,0,0-8.8-5.29C84.88,39.05,64.2,48.42,56.26,63.34,55.5,64.77,53.28,69.2,52.36,77.19Z"/><path class="cls-4" d="M124.12,87.29s.28-4.93,2.94-4.93,4.8,1.6,5.34,6.94S124.12,100,124.12,100"/><path class="cls-4" d="M53.54,87.84s-1.88-6.9-4.84-4.44-3.31,2.65-3.52,7.34c2.24,6.49,9.69,9.71,9.69,9.71"/><path class="cls-5" d="M66.86,162.26c-2.44.71,10.57,9.72,19.88,11.68,2.37.5,4.07.46,4.12.88.15,1.18-10.54,5.51-21,2.2C62.63,174.72,55,166.49,55,166.49S69.3,161.56,66.86,162.26Z"/><path class="cls-5" d="M113.81,163.6s-5.41,4.93-6,5.1c0,0-3.45,3-11.85,5.39-2.21.46-3.6.25-3.65.65,0,.21.26.42.36.49.51.36,9.36,6.1,19.49,2.33,9.38-3.49,16.12-13.15,16.12-13.15Z"/><path class="cls-5" d="M115.41,186.08c-.31,1.6.32,12.84,1.21,13.8,1.6,1.72,13.45,2.14,15.14.23,1.15-1.3,1.18-13.71,1.14-14.34,0-.8-4.73-.18-8.77,0C120.39,186,115.51,185.54,115.41,186.08Z"/><path class="cls-6" d="M87.82,55c-.63,1.2-.34,25.34-.17,26.66.49,4,.55,4.77.17,5.58s-5.28,13.51-5.28,13.51c-3.19,5.06,4.89,3.26,5.28,3.38,2.75.83,0,30.85,1.69,34.88,2.66,6.31,27-6.61,30.88-21.08,1.76-6.55,3-8.34,4.1-15.83.59-3.93,2.49-3.4,4.35-5,2-1.73,4.78-5.54,4.26-7.5s-1.17-4.8-2.17-6.13-2.94-1.07-4.58-1.07c-.53,0-2,1.58-1.89,1.2.55-2.2-.87-10.86-2.61-14.8-1.34-3-4.29-11.64-12.44-18.33a26.27,26.27,0,0,0-7.25-4.55c-3-.54-6.06,3.69-9.15,5.62S87.82,55,87.82,55Z"/><path class="cls-3" d="M116.89,37.16c2.76,7-14.35,27.26-34.24,30.05-8.86,1.24-11.26-2-19.08.81C50,72.85,45.3,86.76,43.61,85.73c-2.32-1.42,1.32-31,22.27-46.4,0,0,18.92-13.86,46.77-5.15C114.29,34.69,116.19,35.4,116.89,37.16Z"/><ellipse class="cls-7" cx="105.75" cy="97.46" rx="6.67" ry="2.5"/><ellipse class="cls-7" cx="71.2" cy="97.46" rx="6.67" ry="2.5"/><path class="cls-8" d="M89.22,126.85c6.09,0,11-3.1,11-6.93h-22C78.2,123.75,83.14,126.85,89.22,126.85Z"/><rect class="cls-9" x="81.8" y="119.92" width="15.47" height="2.67"/><circle class="cls-10" cx="72.72" cy="86.08" r="3.21"/><circle class="cls-9" cx="73.82" cy="87.09" r="1.01"/><circle class="cls-10" cx="103.45" cy="86.08" r="3.21"/><circle class="cls-9" cx="104.56" cy="87.09" r="1.01"/><path class="cls-11" d="M67.73,79.56a7.31,7.31,0,0,1,6-1.46,5.88,5.88,0,0,1,2.13,1.06"/><path class="cls-11" d="M99.39,79.56a7.29,7.29,0,0,1,6-1.46,6,6,0,0,1,2.13,1.06"/><path class="cls-12" d="M17.26,129.79a6.92,6.92,0,0,0,.16.9,35.91,35.91,0,0,1,.55,5.15,23.85,23.85,0,0,0,.93,6.52A6,6,0,0,0,21,145.55a2.54,2.54,0,0,0,2.34.28l.32-.2.4.64a5.24,5.24,0,0,1,.77,2.28,1.21,1.21,0,0,0,.13.57s.11-.23.16-.51a8.16,8.16,0,0,1,.6-2.1l.28-.62.28.23c.66.54,1.22.12,2.28-1.66a9.37,9.37,0,0,1,1.89-2.6,3.49,3.49,0,0,0,1.06-1.55c0-.07-.15.1-.33.36a2.56,2.56,0,0,1-1.93,1.18c-1.88.4-2.37.64-2.86,1.4a2.92,2.92,0,0,0-.48,1.7,2.28,2.28,0,0,1-.11.75c-.09.18-.12,0-.15-1.46,0-.91-.11-2.18-.18-2.81s-.17-2.09-.24-3.24-.16-2.38-.23-2.72a4.43,4.43,0,0,0-.87-1.91c-.43-.5-.43-.25,0,.37a3.92,3.92,0,0,1,.72,1.91,1.8,1.8,0,0,1-.07,1.24,13.46,13.46,0,0,0-.36,1.48l-.18.91.32.89a12.92,12.92,0,0,1,.81,5.53c-.09,1.27-.3,1.93-.42,1.27a4.51,4.51,0,0,0-.35-.86,3.58,3.58,0,0,1-.39-1.64,9.57,9.57,0,0,0-1.28-4.3,12.24,12.24,0,0,0-1.23-1.45c-1.76-1.8-2.68-3.66-3.83-7.63C17.39,129.8,17.26,129.46,17.26,129.79ZM19,136.08a12.31,12.31,0,0,0,.69,1.27l.36.55-.06.95-.05,1-.1-.48a5.91,5.91,0,0,1-.1-.84c0-.32,0-.29-.06.12l0,.47-.41-1.31c-.22-.74-.44-1.47-.46-1.66-.06-.36-.2-.57-.2-.28s.37,1.88.59,2.66l.13.48-.22-.4a1.26,1.26,0,0,0-.28-.38c-.12,0,.12.54.56,1.22.23.39.38.7.33.7s-.28-.26-.49-.6-.38-.52-.38-.42a2.51,2.51,0,0,0,.84,1.28,1.25,1.25,0,0,1,.42.46c0,.13.07.24,0,.24a3.15,3.15,0,0,1-.81-.7c-.4-.45-.38-.22,0,.32a2.26,2.26,0,0,0,.72.63c.4.18.73.59.46.59a2.32,2.32,0,0,1-1-.74c-.1-.15-.2-.23-.22-.18-.16.24.59,1,1.15,1.17a1,1,0,0,1,.68.5l.23.36-.4-.07a2.66,2.66,0,0,1-.85-.44c-.55-.42-.56-.21,0,.3a1.13,1.13,0,0,0,.92.38c.46,0,.57.06.78.33l.25.32h-.27a4.1,4.1,0,0,1-.92-.28c-.73-.33-.86-.23-.2.14a2.64,2.64,0,0,0,1.42.47c.27,0,.6.29.49.46s-1,.07-1.4-.18-.48-.29-.48-.15.69.62,1.13.69a1.85,1.85,0,0,0,.75-.06c.3-.13.37-.12.54.09l.2.23-.45.16a1.19,1.19,0,0,1-.89,0c-1.65-.53-2.81-2.77-3.28-6.36-.11-.86-.44-4.55-.44-5,0-.1.11.15.24.54S18.85,135.69,19,136.08Zm3.42,4.47a8.76,8.76,0,0,1,1.32,4.07l0,.6-.17-.26a2.52,2.52,0,0,1-.25-1,11.88,11.88,0,0,0-.27-1.49,6.37,6.37,0,0,0-.76-1.89c-.1,0-.09,0,.19.76a12.54,12.54,0,0,1,.65,2.71c.05.35,0,.39-.07.29a13.74,13.74,0,0,1-.83-3.06,4.34,4.34,0,0,0-.26-.94,6.31,6.31,0,0,0,.34,2.15c.35,1.42.33,1.34.24,1.34a18.71,18.71,0,0,1-.88-3.93C21.76,139.61,21.92,139.75,22.46,140.55Z"/><path class="cls-12" d="M151.74,104.94a7.93,7.93,0,0,0,.18,1,39.42,39.42,0,0,1,.64,5.9,26.84,26.84,0,0,0,1.08,7.46A6.87,6.87,0,0,0,156,123a2.93,2.93,0,0,0,2.7.32l.36-.24.47.74a5.94,5.94,0,0,1,.89,2.6c0,.38.1.66.15.66s.13-.26.18-.59a9.66,9.66,0,0,1,.7-2.39l.33-.72.32.27c.76.61,1.41.13,2.64-1.9a10.59,10.59,0,0,1,2.18-3,4.06,4.06,0,0,0,1.23-1.78c0-.08-.17.11-.38.41a3,3,0,0,1-2.24,1.35c-2.16.46-2.73.73-3.31,1.6a3.35,3.35,0,0,0-.55,2,2.86,2.86,0,0,1-.12.85c-.11.21-.14,0-.18-1.66,0-1-.12-2.5-.21-3.22s-.2-2.39-.27-3.71-.19-2.73-.27-3.11a5,5,0,0,0-1-2.19c-.49-.58-.5-.29,0,.43a4.34,4.34,0,0,1,.83,2.18,2,2,0,0,1-.08,1.42A16.63,16.63,0,0,0,160,115l-.2,1,.37,1a14.74,14.74,0,0,1,.94,6.32c-.11,1.46-.36,2.22-.5,1.46a4.67,4.67,0,0,0-.4-1,4.15,4.15,0,0,1-.45-1.87,10.67,10.67,0,0,0-1.48-4.92,13.68,13.68,0,0,0-1.42-1.67c-2-2.06-3.1-4.18-4.43-8.73C151.89,105,151.74,104.57,151.74,104.94Zm2.06,7.21a14.54,14.54,0,0,0,.8,1.44l.41.64-.06,1.08-.07,1.1-.11-.55a6.14,6.14,0,0,1-.11-1c0-.36,0-.33-.08.14l-.05.53-.48-1.49c-.25-.84-.5-1.68-.53-1.9-.07-.42-.23-.65-.23-.32s.43,2.15.68,3l.16.55-.26-.45a1.28,1.28,0,0,0-.33-.44c-.14,0,.15.62.65,1.4.27.44.45.8.38.8a2.19,2.19,0,0,1-.56-.69c-.24-.37-.44-.59-.44-.48a2.8,2.8,0,0,0,1,1.47,1.51,1.51,0,0,1,.48.52c.05.15.07.28.05.28a3.93,3.93,0,0,1-1-.8c-.45-.52-.43-.26,0,.36a2.72,2.72,0,0,0,.83.73c.47.2.84.67.53.67a2.63,2.63,0,0,1-1.19-.85c-.12-.17-.24-.26-.27-.21-.18.28.69,1.16,1.34,1.35a1.2,1.2,0,0,1,.79.56l.26.42L156,120a3,3,0,0,1-1-.49c-.63-.48-.65-.25,0,.34a1.24,1.24,0,0,0,1.06.43c.53,0,.67.07.91.38l.29.36h-.32a4.57,4.57,0,0,1-1.06-.31c-.84-.38-1-.27-.23.16a3.12,3.12,0,0,0,1.65.54c.31,0,.68.33.55.52s-1.13.08-1.61-.21-.55-.33-.55-.16.79.7,1.3.78a1.92,1.92,0,0,0,.87-.07c.35-.15.42-.13.62.11l.23.26-.52.18a1.38,1.38,0,0,1-1,0c-1.92-.61-3.26-3.18-3.8-7.28-.13-1-.51-5.21-.51-5.68,0-.11.13.16.28.62S153.59,111.7,153.8,112.15Zm4,5.12a10.05,10.05,0,0,1,1.53,4.65l.05.68-.19-.29a2.65,2.65,0,0,1-.29-1.14,15.47,15.47,0,0,0-.31-1.7,7.38,7.38,0,0,0-.88-2.16c-.12,0-.11,0,.22.86a15.1,15.1,0,0,1,.75,3.11c.05.4,0,.44-.09.33a15.87,15.87,0,0,1-1-3.5,4.49,4.49,0,0,0-.31-1.08,7.36,7.36,0,0,0,.4,2.46c.4,1.63.38,1.53.27,1.53a21.91,21.91,0,0,1-1-4.5C157,116.18,157.13,116.34,157.76,117.27Z"/><path class="cls-12" d="M18.7,66.8a5.91,5.91,0,0,0,.13.7,24.44,24.44,0,0,1,.47,4,16.29,16.29,0,0,0,.8,5A4.58,4.58,0,0,0,21.85,79a2.34,2.34,0,0,0,2,.22l.27-.16.34.5a3.77,3.77,0,0,1,.66,1.76,1,1,0,0,0,.11.44.81.81,0,0,0,.13-.39,5.82,5.82,0,0,1,.52-1.62l.24-.49.24.18c.56.42,1,.09,1.94-1.28a7.44,7.44,0,0,1,1.61-2,2.66,2.66,0,0,0,.91-1.2s-.13.08-.28.28a2.25,2.25,0,0,1-1.65.91c-1.6.31-2,.49-2.44,1.08A2.14,2.14,0,0,0,26,78.53a1.72,1.72,0,0,1-.09.58c-.08.14-.1,0-.13-1.13,0-.71-.09-1.69-.15-2.17s-.15-1.62-.21-2.51a19.94,19.94,0,0,0-.2-2.1,3.19,3.19,0,0,0-.74-1.48c-.36-.39-.37-.2,0,.29a2.82,2.82,0,0,1,.61,1.47,1.22,1.22,0,0,1-.06,1,9.42,9.42,0,0,0-.31,1.14l-.15.71.27.69a9.22,9.22,0,0,1,.7,4.27c-.08,1-.27,1.5-.37,1a3.16,3.16,0,0,0-.29-.67,2.41,2.41,0,0,1-.33-1.26A6.88,6.88,0,0,0,23.48,75a10.58,10.58,0,0,0-1.05-1.13c-1.5-1.39-2.29-2.82-3.26-5.9C18.8,66.81,18.7,66.55,18.7,66.8Zm1.51,4.87c.16.31.43.74.59,1l.31.42-.05.74,0,.74-.08-.37a3.36,3.36,0,0,1-.09-.65c0-.24,0-.22-.05.09l0,.36-.35-1c-.19-.57-.37-1.13-.39-1.28s-.17-.44-.17-.22.32,1.45.5,2.06l.11.37-.19-.31A.88.88,0,0,0,20,73.3c-.1,0,.11.41.48.94.2.3.33.54.28.54a1.49,1.49,0,0,1-.41-.46c-.18-.25-.33-.4-.33-.33a2,2,0,0,0,.72,1,1,1,0,0,1,.36.35c0,.1.05.19,0,.19a2.76,2.76,0,0,1-.69-.54c-.34-.35-.32-.18,0,.24a1.88,1.88,0,0,0,.61.49c.35.14.62.46.39.46a2,2,0,0,1-.88-.58c-.09-.11-.17-.17-.19-.14-.14.19.5.78,1,.91a1,1,0,0,1,.59.38l.18.28-.33,0a2.61,2.61,0,0,1-.73-.34c-.46-.32-.48-.16,0,.24a1,1,0,0,0,.78.28c.39,0,.49,0,.66.26l.22.25h-.24a3.89,3.89,0,0,1-.78-.22c-.62-.25-.73-.18-.17.11a2.59,2.59,0,0,0,1.22.37c.23,0,.5.22.41.35s-.84,0-1.19-.14-.41-.22-.41-.11.59.47,1,.53a1.49,1.49,0,0,0,.64,0c.26-.1.31-.09.46.08l.17.17-.38.12a1,1,0,0,1-.76,0c-1.41-.41-2.4-2.15-2.8-4.91-.09-.67-.38-3.53-.38-3.84,0-.08.1.11.21.41S20.06,71.36,20.21,71.67Zm2.92,3.46a6.33,6.33,0,0,1,1.13,3.14l0,.46-.14-.19a1.73,1.73,0,0,1-.22-.77,7.44,7.44,0,0,0-.23-1.16,4.87,4.87,0,0,0-.64-1.45c-.09,0-.08,0,.16.58a9.53,9.53,0,0,1,.55,2.1c0,.27,0,.3-.06.22A9.53,9.53,0,0,1,23,75.69a2.69,2.69,0,0,0-.22-.72,4.23,4.23,0,0,0,.29,1.66c.3,1.1.28,1,.2,1a13.71,13.71,0,0,1-.75-3C22.53,74.39,22.67,74.5,23.13,75.13Z"/></g></g></svg>