<svg width="1320" height="273" viewBox="0 0 1320 273" fill="none" xmlns="http://www.w3.org/2000/svg">
<rect width="200" height="120" rx="35" fill="url(#paint0_linear)"/>
<path d="M67.7177 38.808C67.7177 42.1867 66.7751 44.7347 64.8897 46.452C63.0044 48.1507 60.3724 49 56.9937 49H51.3657V29.008H57.5817C59.6351 29.008 61.4177 29.3813 62.9297 30.128C64.4604 30.8747 65.6364 31.976 66.4577 33.432C67.2977 34.8693 67.7177 36.6613 67.7177 38.808ZM63.9657 38.92C63.9657 36.5307 63.4151 34.776 62.3137 33.656C61.2311 32.536 59.6537 31.976 57.5817 31.976H54.9497V46.004H57.1057C61.6791 46.004 63.9657 43.6427 63.9657 38.92ZM83.3509 49H71.9829V29.008H83.3509V32.004H75.5669V37.1H82.8469V40.096H75.5669V45.976H83.3509V49ZM91.1242 49H87.5962V29.008H98.9362V32.004H91.1242V37.884H98.4042V40.88H91.1242V49ZM109.439 49H101.039V46.956L103.447 46.06V31.976L101.039 31.052V29.008H109.439V31.052L107.031 31.976V46.06L109.439 46.956V49ZM130.022 49H125.57L116.106 33.32H115.994C116.05 34.16 116.097 35.0653 116.134 36.036C116.19 36.988 116.227 37.9493 116.246 38.92V49H113.026V29.008H117.45L126.886 44.576H126.97C126.933 43.8293 126.895 42.9707 126.858 42C126.821 41.0293 126.793 40.0867 126.774 39.172V29.008H130.022V49ZM146.597 49H135.229V29.008H146.597V32.004H138.813V37.1H146.093V40.096H138.813V45.976H146.597V49ZM40.486 67.008C43.0806 67.008 44.966 67.5493 46.142 68.632C47.3366 69.7147 47.934 71.208 47.934 73.112C47.934 74.2507 47.6913 75.324 47.206 76.332C46.7206 77.3213 45.8993 78.124 44.742 78.74C43.6033 79.3373 42.054 79.636 40.094 79.636H38.106V87H34.522V67.008H40.486ZM40.262 69.976H38.106V76.668H39.73C41.186 76.668 42.306 76.4067 43.09 75.884C43.8926 75.3427 44.294 74.4653 44.294 73.252C44.294 72.1507 43.9673 71.3293 43.314 70.788C42.6606 70.2467 41.6433 69.976 40.262 69.976ZM57.5419 67.008C60.1739 67.008 62.1152 67.4933 63.3659 68.464C64.6352 69.4347 65.2699 70.9093 65.2699 72.888C65.2699 73.8587 65.0832 74.6893 64.7099 75.38C64.3552 76.0707 63.8886 76.6493 63.3099 77.116C62.7312 77.564 62.1059 77.928 61.4339 78.208L67.1739 87H63.1419L58.3539 79.104H55.4419V87H51.8579V67.008H57.5419ZM57.3179 70.004H55.4419V76.164H57.4299C58.9046 76.164 59.9686 75.9027 60.6219 75.38C61.2939 74.8387 61.6299 74.0453 61.6299 73C61.6299 71.9173 61.2752 71.152 60.5659 70.704C59.8752 70.2373 58.7926 70.004 57.3179 70.004ZM87.8235 76.976C87.8235 79.048 87.4781 80.8587 86.7875 82.408C86.1155 83.9387 85.0795 85.1333 83.6795 85.992C82.2795 86.8507 80.5248 87.28 78.4155 87.28C76.2875 87.28 74.5235 86.8507 73.1235 85.992C71.7421 85.1333 70.7061 83.9293 70.0155 82.38C69.3435 80.8307 69.0075 79.02 69.0075 76.948C69.0075 74.8947 69.3435 73.1027 70.0155 71.572C70.7061 70.0227 71.7421 68.828 73.1235 67.988C74.5235 67.1293 76.2968 66.7 78.4435 66.7C80.5528 66.7 82.2981 67.1293 83.6795 67.988C85.0795 68.828 86.1155 70.0227 86.7875 71.572C87.4781 73.1027 87.8235 74.904 87.8235 76.976ZM72.7875 76.976C72.7875 79.2347 73.2355 81.008 74.1315 82.296C75.0275 83.584 76.4555 84.228 78.4155 84.228C80.3941 84.228 81.8221 83.584 82.6995 82.296C83.5955 81.008 84.0435 79.2347 84.0435 76.976C84.0435 74.7173 83.6048 72.944 82.7275 71.656C81.8501 70.368 80.4221 69.724 78.4435 69.724C76.4835 69.724 75.0461 70.368 74.1315 71.656C73.2355 72.944 72.7875 74.7173 72.7875 76.976ZM92.0806 67.008H98.1006C100.695 67.008 102.655 67.3813 103.981 68.128C105.325 68.8747 105.997 70.172 105.997 72.02C105.997 73.1773 105.707 74.148 105.129 74.932C104.55 75.716 103.719 76.2013 102.637 76.388V76.528C103.365 76.6587 104.027 76.9013 104.625 77.256C105.222 77.592 105.689 78.0867 106.025 78.74C106.379 79.3747 106.557 80.2147 106.557 81.26C106.557 83.0707 105.913 84.48 104.625 85.488C103.355 86.496 101.61 87 99.3886 87H92.0806V67.008ZM95.6646 75.156H98.5766C99.9952 75.156 100.966 74.932 101.489 74.484C102.03 74.036 102.301 73.3733 102.301 72.496C102.301 71.6 101.974 70.956 101.321 70.564C100.686 70.172 99.6779 69.976 98.2966 69.976H95.6646V75.156ZM95.6646 78.04V84.004H98.9126C100.369 84.004 101.377 83.724 101.937 83.164C102.515 82.604 102.805 81.8573 102.805 80.924C102.805 80.0653 102.506 79.3747 101.909 78.852C101.33 78.3107 100.275 78.04 98.7446 78.04H95.6646ZM110.674 87V67.008H114.258V83.976H122.602V87H110.674ZM137.437 87H126.069V67.008H137.437V70.004H129.653V75.1H136.933V78.096H129.653V83.976H137.437V87ZM150.278 87L144.79 70.62H144.678C144.697 70.9933 144.725 71.5253 144.762 72.216C144.799 72.888 144.827 73.6253 144.846 74.428C144.883 75.212 144.902 75.9493 144.902 76.64V87H141.682V67.008H146.666L151.93 82.716H152.042L157.53 67.008H162.514V87H159.098V76.472C159.098 75.8373 159.107 75.1467 159.126 74.4C159.163 73.6347 159.191 72.916 159.21 72.244C159.247 71.572 159.275 71.04 159.294 70.648H159.182L153.47 87H150.278Z" fill="white"/>
<rect x="280" width="200" height="120" rx="35" fill="url(#paint1_linear)"/>
<path d="M329.98 49H321.58V46.956L323.988 46.06V31.976L321.58 31.052V29.008H329.98V31.052L327.572 31.976V46.06L329.98 46.956V49ZM349.919 38.808C349.919 42.1867 348.976 44.7347 347.091 46.452C345.206 48.1507 342.574 49 339.195 49H333.567V29.008H339.783C341.836 29.008 343.619 29.3813 345.131 30.128C346.662 30.8747 347.838 31.976 348.659 33.432C349.499 34.8693 349.919 36.6613 349.919 38.808ZM346.167 38.92C346.167 36.5307 345.616 34.776 344.515 33.656C343.432 32.536 341.855 31.976 339.783 31.976H337.151V46.004H339.307C343.88 46.004 346.167 43.6427 346.167 38.92ZM365.552 49H354.184V29.008H365.552V32.004H357.768V37.1H365.048V40.096H357.768V45.976H365.552V49ZM382.145 49L380.325 43.708H372.793L371.001 49H367.193L374.529 28.924H378.617L385.953 49H382.145ZM379.401 40.628L377.665 35.476C377.591 35.2147 377.479 34.86 377.329 34.412C377.18 33.964 377.031 33.5067 376.881 33.04C376.751 32.5547 376.648 32.1533 376.573 31.836C376.48 32.2093 376.359 32.6387 376.209 33.124C376.079 33.6093 375.948 34.0667 375.817 34.496C375.687 34.9253 375.593 35.252 375.537 35.476L373.773 40.628H379.401ZM393.782 49H390.198V32.032H384.458V29.008H399.522V32.032H393.782V49ZM413.951 49H402.583V29.008H413.951V32.004H406.167V37.1H413.447V40.096H406.167V45.976H413.951V49ZM424.216 28.728C425.784 28.728 427.062 29.1107 428.052 29.876C429.041 30.6227 429.536 31.6773 429.536 33.04C429.536 34.2907 429.153 35.3453 428.388 36.204C427.622 37.0627 426.67 37.8187 425.532 38.472L429.984 42.784C430.394 42.1867 430.74 41.524 431.02 40.796C431.318 40.068 431.57 39.3213 431.776 38.556H435.416C435.136 39.6573 434.734 40.7773 434.212 41.916C433.708 43.036 433.064 44.0627 432.28 44.996L436.368 49H431.916L430.012 47.152C429.172 47.8053 428.238 48.328 427.212 48.72C426.204 49.0933 425.046 49.28 423.74 49.28C421.593 49.28 419.904 48.776 418.672 47.768C417.458 46.76 416.852 45.3973 416.852 43.68C416.852 42.2613 417.197 41.1227 417.888 40.264C418.578 39.4053 419.54 38.6307 420.772 37.94C420.081 37.156 419.549 36.4 419.176 35.672C418.802 34.944 418.616 34.132 418.616 33.236C418.616 31.836 419.129 30.7347 420.156 29.932C421.182 29.1293 422.536 28.728 424.216 28.728ZM424.16 31.472C423.581 31.472 423.068 31.6307 422.62 31.948C422.172 32.2467 421.948 32.732 421.948 33.404C421.948 33.9453 422.078 34.4587 422.34 34.944C422.62 35.4293 423.012 35.9427 423.516 36.484C424.43 35.98 425.102 35.4853 425.532 35C425.98 34.5147 426.204 33.9547 426.204 33.32C426.204 32.7227 425.998 32.2653 425.588 31.948C425.177 31.6307 424.701 31.472 424.16 31.472ZM422.844 40.068C422.134 40.5347 421.574 41.02 421.164 41.524C420.753 42.028 420.548 42.6533 420.548 43.4C420.548 44.2773 420.865 44.9773 421.5 45.5C422.134 46.0227 422.946 46.284 423.936 46.284C424.776 46.284 425.513 46.1627 426.148 45.92C426.801 45.6773 427.37 45.3693 427.856 44.996L422.844 40.068ZM340.976 81.54C340.976 83.3133 340.332 84.7133 339.044 85.74C337.756 86.7667 335.973 87.28 333.696 87.28C331.493 87.28 329.627 86.9067 328.096 86.16V82.8C328.936 83.1733 329.86 83.5187 330.868 83.836C331.876 84.1347 332.903 84.284 333.948 84.284C335.143 84.284 336.02 84.0507 336.58 83.584C337.14 83.1173 337.42 82.5013 337.42 81.736C337.42 80.896 337.065 80.2333 336.356 79.748C335.647 79.2627 334.611 78.7307 333.248 78.152C332.427 77.7973 331.643 77.3773 330.896 76.892C330.149 76.4067 329.533 75.7907 329.048 75.044C328.563 74.2787 328.32 73.3267 328.32 72.188C328.32 70.4707 328.917 69.136 330.112 68.184C331.325 67.2133 332.94 66.728 334.956 66.728C336.02 66.728 337.009 66.84 337.924 67.064C338.857 67.288 339.791 67.6053 340.724 68.016L339.576 70.9C338.736 70.5453 337.933 70.2653 337.168 70.06C336.421 69.8547 335.647 69.752 334.844 69.752C333.873 69.752 333.136 69.976 332.632 70.424C332.128 70.8533 331.876 71.4133 331.876 72.104C331.876 72.664 332.016 73.1307 332.296 73.504C332.576 73.8773 333.005 74.2227 333.584 74.54C334.181 74.8573 334.947 75.2213 335.88 75.632C336.944 76.0987 337.859 76.584 338.624 77.088C339.389 77.592 339.968 78.1987 340.36 78.908C340.771 79.6173 340.976 80.4947 340.976 81.54ZM360.262 87H356.146L350.21 78.152L348.334 79.636V87H344.75V67.008H348.334V76.416C348.708 75.9493 349.09 75.4733 349.482 74.988C349.874 74.5027 350.266 74.0173 350.658 73.532L356.062 67.008H360.122L352.786 75.8L360.262 87ZM374.247 87H362.879V67.008H374.247V70.004H366.463V75.1H373.743V78.096H366.463V83.976H374.247V87ZM385.661 87H382.077V70.032H376.337V67.008H391.401V70.032H385.661V87ZM402.427 69.752C400.597 69.752 399.179 70.4053 398.171 71.712C397.181 73.0187 396.687 74.792 396.687 77.032C396.687 79.2907 397.153 81.064 398.087 82.352C399.02 83.6213 400.457 84.256 402.399 84.256C403.239 84.256 404.06 84.172 404.863 84.004C405.665 83.8173 406.505 83.5747 407.383 83.276V86.328C406.561 86.664 405.731 86.9067 404.891 87.056C404.069 87.2053 403.117 87.28 402.035 87.28C399.981 87.28 398.283 86.86 396.939 86.02C395.595 85.1613 394.596 83.9667 393.943 82.436C393.289 80.8867 392.963 79.076 392.963 77.004C392.963 74.988 393.327 73.2147 394.055 71.684C394.783 70.1347 395.847 68.9213 397.247 68.044C398.665 67.1667 400.392 66.728 402.427 66.728C403.435 66.728 404.424 66.8493 405.395 67.092C406.384 67.316 407.308 67.6333 408.167 68.044L406.935 70.984C406.225 70.6667 405.488 70.3867 404.723 70.144C403.976 69.8827 403.211 69.752 402.427 69.752ZM427.648 87H424.064V78.124H415.272V87H411.688V67.008H415.272V75.072H424.064V67.008H427.648V87Z" fill="white"/>
<rect x="560" width="200" height="120" rx="35" fill="url(#paint2_linear)"/>
<path d="M617.298 38.808C617.298 42.1867 616.355 44.7347 614.47 46.452C612.584 48.1507 609.952 49 606.574 49H600.946V29.008H607.162C609.215 29.008 610.998 29.3813 612.51 30.128C614.04 30.8747 615.216 31.976 616.038 33.432C616.878 34.8693 617.298 36.6613 617.298 38.808ZM613.546 38.92C613.546 36.5307 612.995 34.776 611.894 33.656C610.811 32.536 609.234 31.976 607.162 31.976H604.53V46.004H606.686C611.259 46.004 613.546 43.6427 613.546 38.92ZM632.931 49H621.563V29.008H632.931V32.004H625.147V37.1H632.427V40.096H625.147V45.976H632.931V49ZM648.796 43.54C648.796 45.3133 648.152 46.7133 646.864 47.74C645.576 48.7667 643.794 49.28 641.516 49.28C639.314 49.28 637.447 48.9067 635.916 48.16V44.8C636.756 45.1733 637.68 45.5187 638.688 45.836C639.696 46.1347 640.723 46.284 641.768 46.284C642.963 46.284 643.84 46.0507 644.4 45.584C644.96 45.1173 645.24 44.5013 645.24 43.736C645.24 42.896 644.886 42.2333 644.176 41.748C643.467 41.2627 642.431 40.7307 641.068 40.152C640.247 39.7973 639.463 39.3773 638.716 38.892C637.97 38.4067 637.354 37.7907 636.868 37.044C636.383 36.2787 636.14 35.3267 636.14 34.188C636.14 32.4707 636.738 31.136 637.932 30.184C639.146 29.2133 640.76 28.728 642.776 28.728C643.84 28.728 644.83 28.84 645.744 29.064C646.678 29.288 647.611 29.6053 648.544 30.016L647.396 32.9C646.556 32.5453 645.754 32.2653 644.988 32.06C644.242 31.8547 643.467 31.752 642.664 31.752C641.694 31.752 640.956 31.976 640.452 32.424C639.948 32.8533 639.696 33.4133 639.696 34.104C639.696 34.664 639.836 35.1307 640.116 35.504C640.396 35.8773 640.826 36.2227 641.404 36.54C642.002 36.8573 642.767 37.2213 643.7 37.632C644.764 38.0987 645.679 38.584 646.444 39.088C647.21 39.592 647.788 40.1987 648.18 40.908C648.591 41.6173 648.796 42.4947 648.796 43.54ZM659.347 49H650.947V46.956L653.355 46.06V31.976L650.947 31.052V29.008H659.347V31.052L656.939 31.976V46.06L659.347 46.956V49ZM670.914 38.024H678.474V48.188C677.41 48.524 676.318 48.7947 675.198 49C674.078 49.1867 672.809 49.28 671.39 49.28C668.366 49.28 666.042 48.384 664.418 46.592C662.794 44.8 661.982 42.2613 661.982 38.976C661.982 36.904 662.383 35.1027 663.186 33.572C664.007 32.0227 665.193 30.828 666.742 29.988C668.291 29.148 670.177 28.728 672.398 28.728C673.481 28.728 674.526 28.84 675.534 29.064C676.561 29.288 677.494 29.5773 678.334 29.932L677.102 32.872C676.449 32.5733 675.711 32.312 674.89 32.088C674.069 31.864 673.21 31.752 672.314 31.752C670.951 31.752 669.775 32.0507 668.786 32.648C667.797 33.2453 667.031 34.0947 666.49 35.196C665.967 36.2787 665.706 37.5573 665.706 39.032C665.706 40.4507 665.911 41.7013 666.322 42.784C666.733 43.8667 667.386 44.716 668.282 45.332C669.178 45.948 670.345 46.256 671.782 46.256C672.491 46.256 673.089 46.2187 673.574 46.144C674.059 46.0693 674.517 45.9853 674.946 45.892V41.076H670.914V38.024ZM700.246 49H695.794L686.33 33.32H686.218C686.274 34.16 686.321 35.0653 686.358 36.036C686.414 36.988 686.452 37.9493 686.47 38.92V49H683.25V29.008H687.674L697.11 44.576H697.194C697.157 43.8293 697.12 42.9707 697.082 42C697.045 41.0293 697.017 40.0867 696.998 39.172V29.008H700.246V49ZM711.474 28.728C713.042 28.728 714.32 29.1107 715.31 29.876C716.299 30.6227 716.794 31.6773 716.794 33.04C716.794 34.2907 716.411 35.3453 715.646 36.204C714.88 37.0627 713.928 37.8187 712.79 38.472L717.242 42.784C717.652 42.1867 717.998 41.524 718.278 40.796C718.576 40.068 718.828 39.3213 719.034 38.556H722.674C722.394 39.6573 721.992 40.7773 721.47 41.916C720.966 43.036 720.322 44.0627 719.538 44.996L723.626 49H719.174L717.27 47.152C716.43 47.8053 715.496 48.328 714.47 48.72C713.462 49.0933 712.304 49.28 710.998 49.28C708.851 49.28 707.162 48.776 705.93 47.768C704.716 46.76 704.11 45.3973 704.11 43.68C704.11 42.2613 704.455 41.1227 705.146 40.264C705.836 39.4053 706.798 38.6307 708.03 37.94C707.339 37.156 706.807 36.4 706.434 35.672C706.06 34.944 705.874 34.132 705.874 33.236C705.874 31.836 706.387 30.7347 707.414 29.932C708.44 29.1293 709.794 28.728 711.474 28.728ZM711.418 31.472C710.839 31.472 710.326 31.6307 709.878 31.948C709.43 32.2467 709.206 32.732 709.206 33.404C709.206 33.9453 709.336 34.4587 709.598 34.944C709.878 35.4293 710.27 35.9427 710.774 36.484C711.688 35.98 712.36 35.4853 712.79 35C713.238 34.5147 713.462 33.9547 713.462 33.32C713.462 32.7227 713.256 32.2653 712.846 31.948C712.435 31.6307 711.959 31.472 711.418 31.472ZM710.102 40.068C709.392 40.5347 708.832 41.02 708.422 41.524C708.011 42.028 707.806 42.6533 707.806 43.4C707.806 44.2773 708.123 44.9773 708.758 45.5C709.392 46.0227 710.204 46.284 711.194 46.284C712.034 46.284 712.771 46.1627 713.406 45.92C714.059 45.6773 714.628 45.3693 715.114 44.996L710.102 40.068ZM589.984 67.008C592.579 67.008 594.464 67.5493 595.64 68.632C596.835 69.7147 597.432 71.208 597.432 73.112C597.432 74.2507 597.189 75.324 596.704 76.332C596.219 77.3213 595.397 78.124 594.24 78.74C593.101 79.3373 591.552 79.636 589.592 79.636H587.604V87H584.02V67.008H589.984ZM589.76 69.976H587.604V76.668H589.228C590.684 76.668 591.804 76.4067 592.588 75.884C593.391 75.3427 593.792 74.4653 593.792 73.252C593.792 72.1507 593.465 71.3293 592.812 70.788C592.159 70.2467 591.141 69.976 589.76 69.976ZM607.04 67.008C609.672 67.008 611.613 67.4933 612.864 68.464C614.133 69.4347 614.768 70.9093 614.768 72.888C614.768 73.8587 614.581 74.6893 614.208 75.38C613.853 76.0707 613.387 76.6493 612.808 77.116C612.229 77.564 611.604 77.928 610.932 78.208L616.672 87H612.64L607.852 79.104H604.94V87H601.356V67.008H607.04ZM606.816 70.004H604.94V76.164H606.928C608.403 76.164 609.467 75.9027 610.12 75.38C610.792 74.8387 611.128 74.0453 611.128 73C611.128 71.9173 610.773 71.152 610.064 70.704C609.373 70.2373 608.291 70.004 606.816 70.004ZM637.322 76.976C637.322 79.048 636.976 80.8587 636.286 82.408C635.614 83.9387 634.578 85.1333 633.178 85.992C631.778 86.8507 630.023 87.28 627.914 87.28C625.786 87.28 624.022 86.8507 622.622 85.992C621.24 85.1333 620.204 83.9293 619.514 82.38C618.842 80.8307 618.506 79.02 618.506 76.948C618.506 74.8947 618.842 73.1027 619.514 71.572C620.204 70.0227 621.24 68.828 622.622 67.988C624.022 67.1293 625.795 66.7 627.942 66.7C630.051 66.7 631.796 67.1293 633.178 67.988C634.578 68.828 635.614 70.0227 636.286 71.572C636.976 73.1027 637.322 74.904 637.322 76.976ZM622.286 76.976C622.286 79.2347 622.734 81.008 623.63 82.296C624.526 83.584 625.954 84.228 627.914 84.228C629.892 84.228 631.32 83.584 632.198 82.296C633.094 81.008 633.542 79.2347 633.542 76.976C633.542 74.7173 633.103 72.944 632.226 71.656C631.348 70.368 629.92 69.724 627.942 69.724C625.982 69.724 624.544 70.368 623.63 71.656C622.734 72.944 622.286 74.7173 622.286 76.976ZM647.899 87H644.315V70.032H638.575V67.008H653.639V70.032H647.899V87ZM674.017 76.976C674.017 79.048 673.671 80.8587 672.981 82.408C672.309 83.9387 671.273 85.1333 669.873 85.992C668.473 86.8507 666.718 87.28 664.609 87.28C662.481 87.28 660.717 86.8507 659.317 85.992C657.935 85.1333 656.899 83.9293 656.209 82.38C655.537 80.8307 655.201 79.02 655.201 76.948C655.201 74.8947 655.537 73.1027 656.209 71.572C656.899 70.0227 657.935 68.828 659.317 67.988C660.717 67.1293 662.49 66.7 664.637 66.7C666.746 66.7 668.491 67.1293 669.873 67.988C671.273 68.828 672.309 70.0227 672.981 71.572C673.671 73.1027 674.017 74.904 674.017 76.976ZM658.981 76.976C658.981 79.2347 659.429 81.008 660.325 82.296C661.221 83.584 662.649 84.228 664.609 84.228C666.587 84.228 668.015 83.584 668.893 82.296C669.789 81.008 670.237 79.2347 670.237 76.976C670.237 74.7173 669.798 72.944 668.921 71.656C668.043 70.368 666.615 69.724 664.637 69.724C662.677 69.724 661.239 70.368 660.325 71.656C659.429 72.944 658.981 74.7173 658.981 76.976ZM684.594 87H681.01V70.032H675.27V67.008H690.334V70.032H684.594V87ZM699.219 75.828L703.783 67.008H707.647L701.011 79.216V87H697.427V79.356L690.791 67.008H694.683L699.219 75.828ZM716.203 67.008C718.797 67.008 720.683 67.5493 721.859 68.632C723.053 69.7147 723.651 71.208 723.651 73.112C723.651 74.2507 723.408 75.324 722.923 76.332C722.437 77.3213 721.616 78.124 720.459 78.74C719.32 79.3373 717.771 79.636 715.811 79.636H713.823V87H710.239V67.008H716.203ZM715.979 69.976H713.823V76.668H715.447C716.903 76.668 718.023 76.4067 718.807 75.884C719.609 75.3427 720.011 74.4653 720.011 73.252C720.011 72.1507 719.684 71.3293 719.031 70.788C718.377 70.2467 717.36 69.976 715.979 69.976ZM738.943 87H727.575V67.008H738.943V70.004H731.159V75.1H738.439V78.096H731.159V83.976H738.943V87Z" fill="white"/>
<rect x="840" width="200" height="120" rx="35" fill="url(#paint3_linear)"/>
<path d="M907.702 38.808C907.702 42.1867 906.759 44.7347 904.874 46.452C902.989 48.1507 900.357 49 896.978 49H891.35V29.008H897.566C899.619 29.008 901.402 29.3813 902.914 30.128C904.445 30.8747 905.621 31.976 906.442 33.432C907.282 34.8693 907.702 36.6613 907.702 38.808ZM903.95 38.92C903.95 36.5307 903.399 34.776 902.298 33.656C901.215 32.536 899.638 31.976 897.566 31.976H894.934V46.004H897.09C901.663 46.004 903.95 43.6427 903.95 38.92ZM923.335 49H911.967V29.008H923.335V32.004H915.551V37.1H922.831V40.096H915.551V45.976H923.335V49ZM939.201 43.54C939.201 45.3133 938.557 46.7133 937.269 47.74C935.981 48.7667 934.198 49.28 931.921 49.28C929.718 49.28 927.851 48.9067 926.321 48.16V44.8C927.161 45.1733 928.085 45.5187 929.093 45.836C930.101 46.1347 931.127 46.284 932.173 46.284C933.367 46.284 934.245 46.0507 934.805 45.584C935.365 45.1173 935.645 44.5013 935.645 43.736C935.645 42.896 935.29 42.2333 934.581 41.748C933.871 41.2627 932.835 40.7307 931.473 40.152C930.651 39.7973 929.867 39.3773 929.121 38.892C928.374 38.4067 927.758 37.7907 927.273 37.044C926.787 36.2787 926.545 35.3267 926.545 34.188C926.545 32.4707 927.142 31.136 928.337 30.184C929.55 29.2133 931.165 28.728 933.181 28.728C934.245 28.728 935.234 28.84 936.149 29.064C937.082 29.288 938.015 29.6053 938.949 30.016L937.801 32.9C936.961 32.5453 936.158 32.2653 935.393 32.06C934.646 31.8547 933.871 31.752 933.069 31.752C932.098 31.752 931.361 31.976 930.857 32.424C930.353 32.8533 930.101 33.4133 930.101 34.104C930.101 34.664 930.241 35.1307 930.521 35.504C930.801 35.8773 931.23 36.2227 931.809 36.54C932.406 36.8573 933.171 37.2213 934.105 37.632C935.169 38.0987 936.083 38.584 936.849 39.088C937.614 39.592 938.193 40.1987 938.585 40.908C938.995 41.6173 939.201 42.4947 939.201 43.54ZM949.751 49H941.351V46.956L943.759 46.06V31.976L941.351 31.052V29.008H949.751V31.052L947.343 31.976V46.06L949.751 46.956V49ZM961.318 38.024H968.878V48.188C967.814 48.524 966.722 48.7947 965.602 49C964.482 49.1867 963.213 49.28 961.794 49.28C958.77 49.28 956.446 48.384 954.822 46.592C953.198 44.8 952.386 42.2613 952.386 38.976C952.386 36.904 952.788 35.1027 953.59 33.572C954.412 32.0227 955.597 30.828 957.146 29.988C958.696 29.148 960.581 28.728 962.802 28.728C963.885 28.728 964.93 28.84 965.938 29.064C966.965 29.288 967.898 29.5773 968.738 29.932L967.506 32.872C966.853 32.5733 966.116 32.312 965.294 32.088C964.473 31.864 963.614 31.752 962.718 31.752C961.356 31.752 960.18 32.0507 959.19 32.648C958.201 33.2453 957.436 34.0947 956.894 35.196C956.372 36.2787 956.11 37.5573 956.11 39.032C956.11 40.4507 956.316 41.7013 956.726 42.784C957.137 43.8667 957.79 44.716 958.686 45.332C959.582 45.948 960.749 46.256 962.186 46.256C962.896 46.256 963.493 46.2187 963.978 46.144C964.464 46.0693 964.921 45.9853 965.35 45.892V41.076H961.318V38.024ZM990.651 49H986.199L976.735 33.32H976.623C976.679 34.16 976.725 35.0653 976.763 36.036C976.819 36.988 976.856 37.9493 976.875 38.92V49H973.655V29.008H978.079L987.515 44.576H987.599C987.561 43.8293 987.524 42.9707 987.487 42C987.449 41.0293 987.421 40.0867 987.403 39.172V29.008H990.651V49ZM867.882 87H856.514V67.008H867.882V70.004H860.098V75.1H867.378V78.096H860.098V83.976H867.882V87ZM887.191 67.008L880.275 87H876.439L869.523 67.008H873.191L877.223 79.244C877.335 79.58 877.466 80.0187 877.615 80.56C877.765 81.0827 877.905 81.624 878.035 82.184C878.185 82.744 878.297 83.2293 878.371 83.64C878.427 83.2293 878.521 82.744 878.651 82.184C878.782 81.624 878.922 81.0827 879.071 80.56C879.221 80.0187 879.361 79.58 879.491 79.244L883.523 67.008H887.191ZM901.018 87L899.198 81.708H891.666L889.874 87H886.066L893.402 66.924H897.49L904.826 87H901.018ZM898.274 78.628L896.538 73.476C896.464 73.2147 896.352 72.86 896.202 72.412C896.053 71.964 895.904 71.5067 895.754 71.04C895.624 70.5547 895.521 70.1533 895.446 69.836C895.353 70.2093 895.232 70.6387 895.082 71.124C894.952 71.6093 894.821 72.0667 894.69 72.496C894.56 72.9253 894.466 73.252 894.41 73.476L892.646 78.628H898.274ZM907.456 87V67.008H911.04V83.976H919.384V87H907.456ZM938.425 67.008V79.944C938.425 81.3253 938.126 82.576 937.529 83.696C936.95 84.7973 936.063 85.6747 934.869 86.328C933.674 86.9627 932.162 87.28 930.333 87.28C927.738 87.28 925.769 86.608 924.425 85.264C923.081 83.9013 922.409 82.1093 922.409 79.888V67.008H925.993V79.524C925.993 81.1667 926.366 82.3613 927.113 83.108C927.859 83.8547 928.97 84.228 930.445 84.228C931.994 84.228 933.114 83.8267 933.805 83.024C934.514 82.2027 934.869 81.0267 934.869 79.496V67.008H938.425ZM955.569 87L953.749 81.708H946.217L944.425 87H940.617L947.953 66.924H952.041L959.377 87H955.569ZM952.825 78.628L951.089 73.476C951.015 73.2147 950.903 72.86 950.753 72.412C950.604 71.964 950.455 71.5067 950.305 71.04C950.175 70.5547 950.072 70.1533 949.997 69.836C949.904 70.2093 949.783 70.6387 949.633 71.124C949.503 71.6093 949.372 72.0667 949.241 72.496C949.111 72.9253 949.017 73.252 948.961 73.476L947.197 78.628H952.825ZM967.206 87H963.622V70.032H957.882V67.008H972.946V70.032H967.206V87ZM982.782 87H974.382V84.956L976.79 84.06V69.976L974.382 69.052V67.008H982.782V69.052L980.374 69.976V84.06L982.782 84.956V87ZM1004.23 76.976C1004.23 79.048 1003.89 80.8587 1003.2 82.408C1002.53 83.9387 1001.49 85.1333 1000.09 85.992C998.69 86.8507 996.935 87.28 994.826 87.28C992.698 87.28 990.934 86.8507 989.534 85.992C988.152 85.1333 987.116 83.9293 986.426 82.38C985.754 80.8307 985.418 79.02 985.418 76.948C985.418 74.8947 985.754 73.1027 986.426 71.572C987.116 70.0227 988.152 68.828 989.534 67.988C990.934 67.1293 992.707 66.7 994.854 66.7C996.963 66.7 998.708 67.1293 1000.09 67.988C1001.49 68.828 1002.53 70.0227 1003.2 71.572C1003.89 73.1027 1004.23 74.904 1004.23 76.976ZM989.198 76.976C989.198 79.2347 989.646 81.008 990.542 82.296C991.438 83.584 992.866 84.228 994.826 84.228C996.804 84.228 998.232 83.584 999.11 82.296C1000.01 81.008 1000.45 79.2347 1000.45 76.976C1000.45 74.7173 1000.01 72.944 999.138 71.656C998.26 70.368 996.832 69.724 994.854 69.724C992.894 69.724 991.456 70.368 990.542 71.656C989.646 72.944 989.198 74.7173 989.198 76.976ZM1025.49 87H1021.03L1011.57 71.32H1011.46C1011.51 72.16 1011.56 73.0653 1011.6 74.036C1011.65 74.988 1011.69 75.9493 1011.71 76.92V87H1008.49V67.008H1012.91L1022.35 82.576H1022.43C1022.4 81.8293 1022.36 80.9707 1022.32 80C1022.29 79.0293 1022.26 78.0867 1022.24 77.172V67.008H1025.49V87Z" fill="white"/>
<rect x="1120" width="200" height="120" rx="35" fill="url(#paint4_linear)"/>
<path d="M1165.17 49H1161.64V29.008H1172.98V32.004H1165.17V37.884H1172.45V40.88H1165.17V49ZM1183.49 49H1175.09V46.956L1177.49 46.06V31.976L1175.09 31.052V29.008H1183.49V31.052L1181.08 31.976V46.06L1183.49 46.956V49ZM1204.07 49H1199.62L1190.15 33.32H1190.04C1190.1 34.16 1190.14 35.0653 1190.18 36.036C1190.24 36.988 1190.27 37.9493 1190.29 38.92V49H1187.07V29.008H1191.5L1200.93 44.576H1201.02C1200.98 43.8293 1200.94 42.9707 1200.9 42C1200.87 41.0293 1200.84 40.0867 1200.82 39.172V29.008H1204.07V49ZM1221.62 49L1219.8 43.708H1212.27L1210.48 49H1206.67L1214.01 28.924H1218.1L1225.43 49H1221.62ZM1218.88 40.628L1217.14 35.476C1217.07 35.2147 1216.96 34.86 1216.81 34.412C1216.66 33.964 1216.51 33.5067 1216.36 33.04C1216.23 32.5547 1216.13 32.1533 1216.05 31.836C1215.96 32.2093 1215.84 32.6387 1215.69 33.124C1215.56 33.6093 1215.43 34.0667 1215.3 34.496C1215.17 34.9253 1215.07 35.252 1215.02 35.476L1213.25 40.628H1218.88ZM1228.06 49V29.008H1231.65V45.976H1239.99V49H1228.06ZM1250.23 49H1241.83V46.956L1244.24 46.06V31.976L1241.83 31.052V29.008H1250.23V31.052L1247.82 31.976V46.06L1250.23 46.956V49ZM1266.53 49H1252.03V46.564L1261.97 32.032H1252.31V29.008H1266.25V31.444L1256.34 45.976H1266.53V49ZM1281.32 49H1269.95V29.008H1281.32V32.004H1273.54V37.1H1280.82V40.096H1273.54V45.976H1281.32V49ZM1187.7 76.808C1187.7 80.1867 1186.76 82.7347 1184.87 84.452C1182.99 86.1507 1180.36 87 1176.98 87H1171.35V67.008H1177.57C1179.62 67.008 1181.4 67.3813 1182.91 68.128C1184.44 68.8747 1185.62 69.976 1186.44 71.432C1187.28 72.8693 1187.7 74.6613 1187.7 76.808ZM1183.95 76.92C1183.95 74.5307 1183.4 72.776 1182.3 71.656C1181.22 70.536 1179.64 69.976 1177.57 69.976H1174.93V84.004H1177.09C1181.66 84.004 1183.95 81.6427 1183.95 76.92ZM1203.34 87H1191.97V67.008H1203.34V70.004H1195.55V75.1H1202.83V78.096H1195.55V83.976H1203.34V87ZM1219.2 81.54C1219.2 83.3133 1218.56 84.7133 1217.27 85.74C1215.98 86.7667 1214.2 87.28 1211.92 87.28C1209.72 87.28 1207.85 86.9067 1206.32 86.16V82.8C1207.16 83.1733 1208.08 83.5187 1209.09 83.836C1210.1 84.1347 1211.13 84.284 1212.17 84.284C1213.37 84.284 1214.24 84.0507 1214.8 83.584C1215.36 83.1173 1215.64 82.5013 1215.64 81.736C1215.64 80.896 1215.29 80.2333 1214.58 79.748C1213.87 79.2627 1212.84 78.7307 1211.47 78.152C1210.65 77.7973 1209.87 77.3773 1209.12 76.892C1208.37 76.4067 1207.76 75.7907 1207.27 75.044C1206.79 74.2787 1206.54 73.3267 1206.54 72.188C1206.54 70.4707 1207.14 69.136 1208.34 68.184C1209.55 67.2133 1211.16 66.728 1213.18 66.728C1214.24 66.728 1215.23 66.84 1216.15 67.064C1217.08 67.288 1218.02 67.6053 1218.95 68.016L1217.8 70.9C1216.96 70.5453 1216.16 70.2653 1215.39 70.06C1214.65 69.8547 1213.87 69.752 1213.07 69.752C1212.1 69.752 1211.36 69.976 1210.86 70.424C1210.35 70.8533 1210.1 71.4133 1210.1 72.104C1210.1 72.664 1210.24 73.1307 1210.52 73.504C1210.8 73.8773 1211.23 74.2227 1211.81 74.54C1212.41 74.8573 1213.17 75.2213 1214.1 75.632C1215.17 76.0987 1216.08 76.584 1216.85 77.088C1217.61 77.592 1218.19 78.1987 1218.58 78.908C1219 79.6173 1219.2 80.4947 1219.2 81.54ZM1229.75 87H1221.35V84.956L1223.76 84.06V69.976L1221.35 69.052V67.008H1229.75V69.052L1227.34 69.976V84.06L1229.75 84.956V87ZM1241.32 76.024H1248.88V86.188C1247.81 86.524 1246.72 86.7947 1245.6 87C1244.48 87.1867 1243.21 87.28 1241.79 87.28C1238.77 87.28 1236.45 86.384 1234.82 84.592C1233.2 82.8 1232.39 80.2613 1232.39 76.976C1232.39 74.904 1232.79 73.1027 1233.59 71.572C1234.41 70.0227 1235.6 68.828 1237.15 67.988C1238.7 67.148 1240.58 66.728 1242.8 66.728C1243.89 66.728 1244.93 66.84 1245.94 67.064C1246.97 67.288 1247.9 67.5773 1248.74 67.932L1247.51 70.872C1246.85 70.5733 1246.12 70.312 1245.29 70.088C1244.47 69.864 1243.61 69.752 1242.72 69.752C1241.36 69.752 1240.18 70.0507 1239.19 70.648C1238.2 71.2453 1237.44 72.0947 1236.89 73.196C1236.37 74.2787 1236.11 75.5573 1236.11 77.032C1236.11 78.4507 1236.32 79.7013 1236.73 80.784C1237.14 81.8667 1237.79 82.716 1238.69 83.332C1239.58 83.948 1240.75 84.256 1242.19 84.256C1242.9 84.256 1243.49 84.2187 1243.98 84.144C1244.46 84.0693 1244.92 83.9853 1245.35 83.892V79.076H1241.32V76.024ZM1270.65 87H1266.2L1256.73 71.32H1256.62C1256.68 72.16 1256.73 73.0653 1256.76 74.036C1256.82 74.988 1256.86 75.9493 1256.87 76.92V87H1253.65V67.008H1258.08L1267.51 82.576H1267.6C1267.56 81.8293 1267.52 80.9707 1267.49 80C1267.45 79.0293 1267.42 78.0867 1267.4 77.172V67.008H1270.65V87Z" fill="white"/>
<line x1="217.995" y1="58.5273" x2="261.995" y2="58.5273" stroke="#BFBFBF" stroke-width="4" stroke-linecap="round" stroke-linejoin="bevel" stroke-dasharray="10 10"/>
<line x1="498" y1="58.5273" x2="542" y2="58.5273" stroke="#BFBFBF" stroke-width="4" stroke-linecap="round" stroke-linejoin="bevel" stroke-dasharray="10 10"/>
<line x1="778.005" y1="58.5273" x2="822.005" y2="58.5273" stroke="#BFBFBF" stroke-width="4" stroke-linecap="round" stroke-linejoin="bevel" stroke-dasharray="10 10"/>
<line x1="1058.01" y1="58.5273" x2="1102.01" y2="58.5273" stroke="#BFBFBF" stroke-width="4" stroke-linecap="round" stroke-linejoin="bevel" stroke-dasharray="10 10"/>
<path d="M695 139C695 278.909 929 268.32 929 139" stroke="#BFBFBF" stroke-width="3" stroke-dasharray="12 12"/>
<rect x="729" y="206" width="165" height="67" rx="33.5" fill="url(#paint5_linear)"/>
<path d="M765.42 248.192H757.02V246.148L759.428 245.252V231.168L757.02 230.244V228.2H765.42V230.244L763.012 231.168V245.252L765.42 246.148V248.192ZM776.175 248.192H772.591V231.224H766.851V228.2H781.915V231.224H776.175V248.192ZM796.344 248.192H784.976V228.2H796.344V231.196H788.56V236.292H795.84V239.288H788.56V245.168H796.344V248.192ZM806.273 228.2C808.905 228.2 810.846 228.685 812.097 229.656C813.366 230.626 814.001 232.101 814.001 234.08C814.001 235.05 813.814 235.881 813.441 236.572C813.086 237.262 812.62 237.841 812.041 238.308C811.462 238.756 810.837 239.12 810.165 239.4L815.905 248.192H811.873L807.085 240.296H804.173V248.192H800.589V228.2H806.273ZM806.049 231.196H804.173V237.356H806.161C807.636 237.356 808.7 237.094 809.353 236.572C810.025 236.03 810.361 235.237 810.361 234.192C810.361 233.109 810.006 232.344 809.297 231.896C808.606 231.429 807.524 231.196 806.049 231.196ZM831.039 248.192L829.219 242.9H821.687L819.895 248.192H816.087L823.423 228.116H827.511L834.847 248.192H831.039ZM828.295 239.82L826.559 234.668C826.484 234.406 826.372 234.052 826.223 233.604C826.073 233.156 825.924 232.698 825.775 232.232C825.644 231.746 825.541 231.345 825.467 231.028C825.373 231.401 825.252 231.83 825.103 232.316C824.972 232.801 824.841 233.258 824.711 233.688C824.58 234.117 824.487 234.444 824.431 234.668L822.667 239.82H828.295ZM842.675 248.192H839.091V231.224H833.351V228.2H848.415V231.224H842.675V248.192ZM862.844 248.192H851.476V228.2H862.844V231.196H855.06V236.292H862.34V239.288H855.06V245.168H862.844V248.192Z" fill="white"/>
<circle cx="881" cy="196" r="24" fill="#3E3E3E"/>
<path d="M888.384 206H874.692V203.396L879.788 198.244C880.796 197.217 881.618 196.34 882.252 195.612C882.906 194.884 883.382 194.203 883.68 193.568C883.998 192.915 884.156 192.215 884.156 191.468C884.156 190.553 883.895 189.872 883.372 189.424C882.85 188.957 882.159 188.724 881.3 188.724C880.46 188.724 879.676 188.901 878.948 189.256C878.22 189.592 877.464 190.077 876.68 190.712L874.748 188.388C875.57 187.679 876.503 187.063 877.548 186.54C878.594 185.999 879.91 185.728 881.496 185.728C882.784 185.728 883.895 185.961 884.828 186.428C885.762 186.876 886.471 187.501 886.956 188.304C887.46 189.107 887.712 190.04 887.712 191.104C887.712 192.187 887.498 193.185 887.068 194.1C886.639 194.996 886.014 195.901 885.192 196.816C884.39 197.712 883.428 198.683 882.308 199.728L879.144 202.78V202.948H888.384V206Z" fill="white"/>
<defs>
<linearGradient id="paint0_linear" x1="100" y1="0" x2="100" y2="120" gradientUnits="userSpaceOnUse">
<stop stop-color="#418E34"/>
<stop offset="1" stop-color="#418E34" stop-opacity="0.8"/>
</linearGradient>
<linearGradient id="paint1_linear" x1="380" y1="0" x2="380" y2="120" gradientUnits="userSpaceOnUse">
<stop stop-color="#C16743"/>
<stop offset="1" stop-color="#C16743" stop-opacity="0.8"/>
</linearGradient>
<linearGradient id="paint2_linear" x1="660" y1="0" x2="660" y2="120" gradientUnits="userSpaceOnUse">
<stop stop-color="#34808E"/>
<stop offset="1" stop-color="#34808E" stop-opacity="0.8"/>
</linearGradient>
<linearGradient id="paint3_linear" x1="940" y1="0" x2="940" y2="120" gradientUnits="userSpaceOnUse">
<stop stop-color="#B143C1"/>
<stop offset="1" stop-color="#B143C1" stop-opacity="0.8"/>
</linearGradient>
<linearGradient id="paint4_linear" x1="1220" y1="0" x2="1220" y2="120" gradientUnits="userSpaceOnUse">
<stop stop-color="#585A56"/>
<stop offset="1" stop-color="#585A56" stop-opacity="0.8"/>
</linearGradient>
<linearGradient id="paint5_linear" x1="811.5" y1="206" x2="811.5" y2="273" gradientUnits="userSpaceOnUse">
<stop stop-color="#788C8B"/>
<stop offset="1" stop-color="#788C8B" stop-opacity="0.8"/>
</linearGradient>
</defs>
</svg>
